<svg xmlns="http://www.w3.org/2000/svg" width="119.75" height="119.75" viewBox="0 0 119.75 119.75">
  <g id="Rahmen" transform="translate(-0.03 -0.03)">
    <path id="Pfad_409" data-name="Pfad 409" d="M31.476,87.471a13.418,13.418,0,0,0-5.167-1.03,9.952,9.952,0,0,0-2.958.407A6.706,6.706,0,0,0,21.081,88a5.054,5.054,0,0,0-1.443,1.832,5.778,5.778,0,0,0-.5,2.395,3.91,3.91,0,0,0,1.048,2.9,7.263,7.263,0,0,0,3.676,1.581c.527.108.946.2,1.269.3a2.73,2.73,0,0,1,.736.311.838.838,0,0,1,.329.377,1.437,1.437,0,0,1,.078.515,1.036,1.036,0,0,1-.5.88,2.215,2.215,0,0,1-1.281.341,8.041,8.041,0,0,1-4.509-1.629l-2.066,4.012a12.574,12.574,0,0,0,6.419,1.844,10.778,10.778,0,0,0,3.1-.419,7.424,7.424,0,0,0,2.4-1.2,5.389,5.389,0,0,0,1.569-1.892,5.592,5.592,0,0,0,.563-2.539,4.269,4.269,0,0,0-1.162-3.084,6.5,6.5,0,0,0-3.5-1.676l-1.365-.311a3.2,3.2,0,0,1-.784-.281.862.862,0,0,1-.341-.329,1.09,1.09,0,0,1-.078-.455.964.964,0,0,1,.485-.844,2.305,2.305,0,0,1,1.269-.317,6.658,6.658,0,0,1,3.078.856l1.91-3.694ZM39.182,103.1l2.036-13.592L46.51,103.1h2.443l5.574-13.592,2.03,13.592h6.107L58.683,79.49h-6.1L47.888,92.064,43.157,79.49H37.08L33.074,103.1Zm34.38-8.766,2.76-7.862,2.754,7.862Zm8.55,8.766h6.544L79.675,79.49H72.969L63.988,103.1h6.544L71.939,99h8.772l1.407,4.1Zm8.736,0h5.67V96.207a5.179,5.179,0,0,1,.988-3.425,3.628,3.628,0,0,1,2.958-1.2,5.389,5.389,0,0,1,2.443.563V86.759a3.549,3.549,0,0,0-.6-.066h-.515a5.94,5.94,0,0,0-3.072.772,6.508,6.508,0,0,0-2.221,2.2V87.034H90.83V103.1ZM116.211,91.77V87.04H112.99V82.19h-5.67v4.79h-1.88v4.79h1.88V103.1h5.67V91.77Z" transform="translate(-7.16 -31.865)"/>
    <path id="Pfad_410" data-name="Pfad 410" d="M118.553,1.2V118.553H1.2V1.2H118.553m1.2-1.2H0V119.75H119.75Z" transform="translate(0.03 0.03)"/>
  </g>
</svg>
