<svg xmlns="http://www.w3.org/2000/svg" width="75" height="75" viewBox="0 0 75 75">
  <g id="Rahmen" transform="translate(-0.03 -0.03)">
    <path id="Pfad_405" data-name="Pfad 405" d="M26.41,84.489a8.4,8.4,0,0,0-3.236-.645,6.233,6.233,0,0,0-1.853.255,4.2,4.2,0,0,0-1.421.724A3.165,3.165,0,0,0,19,85.97a3.619,3.619,0,0,0-.311,1.5,2.449,2.449,0,0,0,.656,1.815,4.548,4.548,0,0,0,2.3.99c.33.067.593.128.8.188a1.71,1.71,0,0,1,.461.195.525.525,0,0,1,.206.236.9.9,0,0,1,.049.323.649.649,0,0,1-.315.551,1.387,1.387,0,0,1-.8.214,5.036,5.036,0,0,1-2.824-1.02L17.92,93.474a7.875,7.875,0,0,0,4.02,1.155,6.75,6.75,0,0,0,1.943-.262,4.65,4.65,0,0,0,1.5-.75,3.375,3.375,0,0,0,.983-1.185,3.5,3.5,0,0,0,.353-1.59,2.674,2.674,0,0,0-.728-1.931A4.072,4.072,0,0,0,23.8,87.86l-.855-.195a2,2,0,0,1-.491-.176.54.54,0,0,1-.214-.206A.682.682,0,0,1,22.188,87a.6.6,0,0,1,.3-.529,1.444,1.444,0,0,1,.8-.2,4.17,4.17,0,0,1,1.928.536l1.2-2.314Zm4.826,9.788,1.275-8.513,3.315,8.513h1.53l3.491-8.513,1.271,8.513h3.825L43.45,79.49H39.629l-2.94,7.875L33.726,79.49H29.92L27.411,94.276Zm21.533-5.49L54.5,83.863l1.725,4.924Zm5.355,5.49h4.1L56.6,79.49H52.4L46.773,94.276h4.1l.881-2.569h5.494l.881,2.569Zm5.471,0h3.551V89.96a3.244,3.244,0,0,1,.619-2.145,2.272,2.272,0,0,1,1.852-.75,3.375,3.375,0,0,1,1.53.353V84.043A2.222,2.222,0,0,0,70.773,84H70.45a3.72,3.72,0,0,0-1.924.484,4.076,4.076,0,0,0-1.391,1.38v-1.65H63.584V94.276Zm15.885-7.1V84.219H77.463V81.181H73.911v3H72.734v3h1.177v7.1h3.551v-7.1Z" transform="translate(-11.17 -49.651)"/>
    <path id="Pfad_406" data-name="Pfad 406" d="M74.25.75v73.5H.75V.75h73.5M75,0H0V75H75Z" transform="translate(0.03 0.03)"/>
  </g>
</svg>
