<svg xmlns="http://www.w3.org/2000/svg" width="50" height="50" viewBox="0 0 50 50">
  <g id="sMArt_Logo_1c_2_neg" transform="translate(-0.03 -0.03)">
    <path id="Pfad_399" data-name="Pfad 399" d="M23.577,82.83a5.587,5.587,0,0,0-2.156-.431,4.142,4.142,0,0,0-1.234.17,2.8,2.8,0,0,0-.947.484,2.114,2.114,0,0,0-.6.767,2.423,2.423,0,0,0-.207,1,1.639,1.639,0,0,0,.437,1.213A3.027,3.027,0,0,0,20.4,86.7c.22.045.395.085.53.125a1.138,1.138,0,0,1,.307.13.35.35,0,0,1,.137.158.6.6,0,0,1,.032.215.434.434,0,0,1-.21.368.923.923,0,0,1-.535.143,3.35,3.35,0,0,1-1.882-.681l-.862,1.679A5.237,5.237,0,0,0,20.6,89.6a4.487,4.487,0,0,0,1.294-.175,3.1,3.1,0,0,0,1-.5,2.254,2.254,0,0,0,.655-.792,2.345,2.345,0,0,0,.235-1.062,1.789,1.789,0,0,0-.485-1.29,2.711,2.711,0,0,0-1.462-.7l-.57-.13a1.332,1.332,0,0,1-.327-.118A.36.36,0,0,1,20.8,84.7a.457.457,0,0,1-.032-.19.4.4,0,0,1,.2-.353.96.96,0,0,1,.53-.133,2.773,2.773,0,0,1,1.284.358l.8-1.546Zm3.216,6.539.85-5.688,2.209,5.688h1.02L33.2,83.682l.847,5.688h2.549L34.932,79.49H32.386l-1.959,5.262L28.452,79.49H25.916l-1.672,9.879ZM41.141,85.7l1.152-3.29,1.149,3.29Zm3.568,3.668h2.731L43.693,79.49h-2.8l-3.748,9.879h2.731l.587-1.716h3.661l.587,1.716Zm3.646,0h2.366V86.485a2.172,2.172,0,0,1,.412-1.433,1.512,1.512,0,0,1,1.234-.5,2.244,2.244,0,0,1,1.02.236V82.532a1.477,1.477,0,0,0-.25-.028h-.215a2.474,2.474,0,0,0-1.282.323,2.72,2.72,0,0,0-.927.922v-1.1H48.348v6.722Zm10.585-4.74V82.649H57.6V80.62H55.229v2h-.785v2h.785v4.743H57.6V84.629Z" transform="translate(-13.4 -59.599)" fill="#fff"/>
    <path id="Pfad_400" data-name="Pfad 400" d="M49.5.5v49H.5V.5h49M50,0H0V50H50Z" transform="translate(0.03 0.03)" fill="#fff"/>
  </g>
</svg>
